<?xml version="1.0" encoding="UTF-8"?>
<svg id="Layer_1" xmlns="http://www.w3.org/2000/svg" baseProfile="tiny" version="1.2" viewBox="0 0 106.03 108.03">
  <!-- Generator: Adobe Illustrator 30.4.0, SVG Export Plug-In . SVG Version: 2.1.4 Build 226)  -->
  <path d="M20.31,11.41c3.9-1.5,7.7-2.9,11.4-4.3,5.5-2.1,11-4.1,16.4-6.2,3.1-1.2,6.3-1.2,9.4-.1,9.1,3.4,18.3,6.9,27.4,10.4.2.1.3.2.6.3-4.5,3.2-9,6.4-13.5,9.6-3.3,2.4-6.6,4.7-10,7.1-5.6,4-12.8,3.9-18.3,0-6.3-4.6-12.7-9.1-19-13.7-1.4-.9-2.8-1.9-4.4-3.1" fill="#2c371e"/>
  <path d="M11.21,87.31c-1.5-4-2.9-7.8-4.2-11.6-2-5.6-4-11.1-6.1-16.7-1.2-3.2-1.2-6.4-.1-9.5,3.4-9.3,6.8-18.6,10.2-27.9.1-.2.2-.3.3-.6,3.2,4.6,6.3,9.2,9.5,13.7,2.3,3.4,4.7,6.8,7,10.1,3.9,5.7,3.9,13,0,18.6-4.5,6.4-8.9,12.9-13.4,19.4-1.1,1.5-2.1,2.9-3.2,4.5" fill="#a0cc3a"/>
  <path d="M85.71,96.61c-3.9,1.5-7.7,2.9-11.4,4.3-5.5,2.1-10.9,4.1-16.4,6.2-3.1,1.2-6.3,1.2-9.4.1-9.1-3.4-18.3-6.9-27.4-10.4-.2-.1-.3-.2-.6-.3,4.5-3.2,9-6.4,13.5-9.6,3.3-2.4,6.6-4.7,10-7.1,5.6-4,12.8-4,18.3,0,6.3,4.6,12.7,9.1,19,13.7,1.5,1,2.9,2,4.4,3.1" fill="#83aa40"/>
  <path d="M94.81,20.71c1.5,4,2.8,7.8,4.2,11.6,2,5.6,4,11.1,6.1,16.7,1.2,3.2,1.2,6.4.1,9.5-3.4,9.3-6.8,18.6-10.2,27.9-.1.2-.2.3-.3.6-3.2-4.6-6.3-9.2-9.5-13.7-2.3-3.4-4.6-6.8-7-10.1-3.9-5.7-3.9-13,0-18.6,4.5-6.5,8.9-12.9,13.4-19.4,1.2-1.5,2.1-2.9,3.2-4.5" fill="#309245"/>
</svg>