<svg xmlns="http://www.w3.org/2000/svg" viewBox="0 0 145.2 201.52">
  <path fill="#ae872e" d="M1.83 46.43 72.48 2.72l70.64 43.71-21.86 13.27-48.78-30.16L23.16 59.7z"/>
  <path fill="#9aba4e" d="M2.76 77.96 72.48 36l69.22 43.02-69.47 42.38z"/>
  <path fill="#ae872e" d="M2.76 111.19 23.42 97.7l49.06 30.57L122.1 97.7l19.6 13.28-69.22 43.23zm32.48 71.36v-5.04c0-.69 0-1.34-.02-1.96s-.04-1.32-.07-2.1-.06-1.66-.09-2.65-.08-2.18-.14-3.58c.36.09.72.16 1.07.21s.83.07 1.44.07 1.14-.02 1.51-.07.75-.11 1.14-.21c-.15 2.74-.25 5.46-.3 8.15s-.07 5.41-.07 8.15c0 2.07 0 3.87.02 5.39s.04 2.88.07 4.06c.03 1.19.07 2.25.11 3.17.05.93.08 1.82.11 2.67q-.645-.09-1.35-.18c-.47-.06-.97-.09-1.48-.09s-.96.03-1.32.09-.73.12-1.1.18c.09-1.25.16-2.37.21-3.38s.09-2.09.14-3.26q.075-1.755.09-3.99c.02-1.49.02-3.36.02-5.62Zm40.68 16.25q-.735-.09-1.32-.18c-.4-.06-.85-.09-1.37-.09q-.735 0-1.53.09c-.53.06-1.12.12-1.76.18-1.1-1.7-2.12-3.26-3.08-4.68-.96-1.41-1.89-2.74-2.81-3.97-.91-1.23-1.8-2.39-2.67-3.47s-1.74-2.14-2.62-3.17h-1.19c0 1.64 0 3.68.02 6.12s.11 5.49.3 9.18c-.4-.09-.83-.16-1.3-.21s-.92-.07-1.35-.07c-.61 0-1.08.03-1.42.09s-.67.12-1 .18c.12-2.71.21-5.46.25-8.26s.07-5.87.07-9.22c0-2.13-.03-4.37-.09-6.71s-.12-4.81-.18-7.4c.88.09 1.64.15 2.28.16.64.02 1.2.02 1.69.02h1.07c.5 0 1.03 0 1.6-.02.56-.02 1.1-.02 1.6-.02h1.03c1.37 0 2.52.05 3.45.14s1.71.21 2.35.36 1.18.35 1.62.59.84.52 1.21.82c.88.7 1.49 1.51 1.83 2.44.33.93.5 1.94.5 3.04 0 1.64-.34 2.97-1 3.97s-1.48 1.8-2.42 2.37c-.94.58-1.93 1-2.94 1.26q-1.53.39-2.58.57c.27.43.75 1.09 1.42 1.99s1.42 1.89 2.26 2.99 1.71 2.22 2.62 3.38 1.77 2.24 2.56 3.24 1.45 1.85 1.99 2.53c.53.69.84 1.09.94 1.21v.55Zm-7.58-23.56c0-1.34-.25-2.4-.75-3.2s-1.14-1.4-1.92-1.83-1.63-.7-2.56-.82-1.8-.18-2.63-.18c-.67 0-1.24.02-1.71.07s-.86.1-1.16.16c-.06 1.03-.09 2.07-.09 3.1v4.82c0 .62 0 1.23.02 1.83.02.59.02 1.13.02 1.62v1.1c.43.06.8.09 1.12.09s.75-.02 1.3-.05c.52-.03 1.24-.1 2.17-.21s1.85-.37 2.76-.8 1.71-1.09 2.4-1.99c.68-.9 1.03-2.14 1.03-3.72Zm20.05 11.6q-.69 1.605-1.89 4.59c-.81 1.99-1.59 4.45-2.35 7.37l-.82-.18q-.405-.09-1.05-.09c-.645 0-.79.03-1.1.09l-.91.18c.67-1.46 1.41-3.08 2.21-4.86.81-1.78 1.64-3.62 2.51-5.52s1.74-3.84 2.62-5.82 1.73-3.9 2.53-5.78c.81-1.87 1.57-3.66 2.28-5.36.72-1.7 1.35-3.24 1.89-4.61.18.03.36.06.52.09.17.03.37.05.62.05.21 0 .39 0 .52-.02.14-.02.3-.05.48-.11.58 1.61 1.32 3.51 2.21 5.68.9 2.18 1.86 4.44 2.88 6.8s2.04 4.7 3.06 7.01 1.93 4.39 2.74 6.23q1.215 2.76 2.01 4.47c.53 1.14.8 1.73.8 1.76l-1.21-.18c-.41-.06-.91-.09-1.48-.09-.61 0-1.14.03-1.6.09s-.9.12-1.32.18c-.79-2.77-1.61-5.14-2.47-7.1-.85-1.96-1.57-3.58-2.15-4.86H88.37Zm5.7-13.65-4.79 11.32h9.72z"/>
</svg>