<?xml version="1.0" encoding="utf-8"?>
<!-- Generator: Adobe Illustrator 28.2.0, SVG Export Plug-In . SVG Version: 6.00 Build 0)  -->
<svg version="1.1" id="Layer_1" xmlns="http://www.w3.org/2000/svg" xmlns:xlink="http://www.w3.org/1999/xlink" x="0px" y="0px"
	 viewBox="0 0 437.4 108" style="enable-background:new 0 0 437.4 108;" xml:space="preserve">
<style type="text/css">
	.st0{fill:#ADADAD;}
</style>
<path class="st0" d="M21.3,11.4c3.9-1.5,7.7-2.9,11.4-4.3C38.2,5,43.7,3,49.1,0.9c3.1-1.2,6.3-1.2,9.4-0.1
	c9.1,3.4,18.3,6.9,27.4,10.4c0.2,0.1,0.3,0.2,0.6,0.3c-4.5,3.2-9,6.4-13.5,9.6c-3.3,2.4-6.6,4.7-10,7.1c-5.6,4-12.8,3.9-18.3,0
	c-6.3-4.6-12.7-9.1-19-13.7C24.3,13.6,22.9,12.6,21.3,11.4"/>
<path class="st0" d="M12.2,87.3c-1.5-4-2.9-7.8-4.2-11.6C6,70.1,4,64.6,1.9,59c-1.2-3.2-1.2-6.4-0.1-9.5C5.2,40.2,8.6,30.9,12,21.6
	c0.1-0.2,0.2-0.3,0.3-0.6c3.2,4.6,6.3,9.2,9.5,13.7c2.3,3.4,4.7,6.8,7,10.1c3.9,5.7,3.9,13,0,18.6c-4.5,6.4-8.9,12.9-13.4,19.4
	C14.3,84.3,13.3,85.7,12.2,87.3"/>
<path class="st0" d="M86.7,96.6c-3.9,1.5-7.7,2.9-11.4,4.3c-5.5,2.1-10.9,4.1-16.4,6.2c-3.1,1.2-6.3,1.2-9.4,0.1
	c-9.1-3.4-18.3-6.9-27.4-10.4c-0.2-0.1-0.3-0.2-0.6-0.3c4.5-3.2,9-6.4,13.5-9.6c3.3-2.4,6.6-4.7,10-7.1c5.6-4,12.8-4,18.3,0
	c6.3,4.6,12.7,9.1,19,13.7C83.8,94.5,85.2,95.5,86.7,96.6"/>
<path class="st0" d="M95.8,20.7c1.5,4,2.8,7.8,4.2,11.6c2,5.6,4,11.1,6.1,16.7c1.2,3.2,1.2,6.4,0.1,9.5c-3.4,9.3-6.8,18.6-10.2,27.9
	c-0.1,0.2-0.2,0.3-0.3,0.6c-3.2-4.6-6.3-9.2-9.5-13.7c-2.3-3.4-4.6-6.8-7-10.1c-3.9-5.7-3.9-13,0-18.6c4.5-6.5,8.9-12.9,13.4-19.4
	C93.8,23.7,94.7,22.3,95.8,20.7"/>
<path class="st0" d="M192.5,26c-3.4,0-6,2.7-6,6.2c0,14.5,0,29.1,0,43.6c0,3.5,2.6,6.1,6,6.1c15.9,0,31.8,0,47.7,0h1V67.8h-40.9
	c0-2,0-3.8,0-5.7c0-1.2,0-1.2,1.2-1.2c12.9,0,25.7,0,38.6,0c0.3,0,0.7,0,1.1-0.1v-14h-40.8v-6.7h40.8V26h-0.9
	C224.4,26,208.4,26,192.5,26"/>
<path class="st0" d="M164.7,56.1c-1.3-1.4-1.3-2.8,0-4.2c3.1-3.2,6.2-6.3,9.3-9.5c1.6-1.6,2.4-3.6,2.4-5.9c0-3.3,0-6.5,0-9.8
	c0-0.2,0-0.5,0-0.8h-13.8c0,0.3,0,0.6,0,0.9c0,1.9,0,3.7,0,5.6c0,0.3-0.1,0.8-0.4,1c-4.2,4.3-8.4,8.6-12.6,13
	c-0.2,0.2-0.4,0.4-0.7,0.6c-0.1-0.1-0.2-0.1-0.3-0.2c-4.3-4.5-8.7-9-13-13.6c-0.2-0.2-0.4-0.7-0.4-1c0-1.8,0-3.6,0-5.4
	c0-0.3,0-0.6,0-0.9h-13.8c0,3.5,0,7,0,10.4c0,2.6,1,4.7,2.8,6.5c3,3,5.9,6,8.9,9.1c1.4,1.5,1.4,2.7-0.1,4.1c-3,3.1-6.1,6.2-9.1,9.3
	c-1.5,1.6-2.4,3.5-2.5,5.7c-0.1,3.5-0.1,7.1-0.1,10.6c0,0.1,0,0.2,0.1,0.3h13.7c0-0.3,0-0.6,0-0.9c0-1.8,0-3.6,0-5.4
	c0-0.4,0.2-0.9,0.5-1.2c3.5-3.6,7-7.1,10.4-10.7c0.9-0.9,1.6-1.9,2.5-2.9c0.5,0.5,0.7,0.7,0.9,0.9c3.6,3.7,7.2,7.4,10.9,11
	c1.6,1.5,2.1,3.8,2,5.2c0,1,0,2.6,0,3.9h13.8c0-0.3,0-0.5,0-0.8c0-3.2,0-6.5,0-9.7c0-2.3-0.8-4.3-2.4-5.9
	C170.8,62.5,167.8,59.3,164.7,56.1"/>
<path class="st0" d="M371.4,54L371.4,54c0-5.5,0-11,0-16.5c0-1-0.1-2-0.3-2.9c-1.3-5.1-5.9-8.6-11.2-8.6c-10.6,0-21.2,0-31.8,0
	c-0.8,0-1.6,0.1-2.4,0.2c-5.3,1.1-9.2,6-9.2,11.5c0,10.5,0,21,0,31.4c0,0.9,0.1,1.9,0.2,2.8c0.8,5.7,5.6,10,11.3,10
	c10.7,0,21.3,0,31.9,0c6.4,0,11.7-5.6,11.5-11.7C371.2,64.9,371.4,59.5,371.4,54 M357.6,63.7c0,2.2-1.9,4.1-4.1,4.1
	c-3.2,0.1-6.4,0-9.7,0l0,0c-3.2,0-6.4,0-9.6,0c-1.8,0-3.5-1.6-3.9-3.6c-0.1-0.5-0.2-1-0.2-1.6c0-5.8,0-11.7,0-17.5
	c0-2.4,1.4-4.4,3.5-5c0.2-0.1,0.4-0.1,0.6-0.1c6.3,0,12.7-0.1,19,0c2.6,0,4.3,1.9,4.4,4.5C357.7,51,357.6,57.4,357.6,63.7"/>
<path class="st0" d="M302.4,29c-2.2-2-4.8-2.9-7.8-3c-14.2,0-28.3,0-42.5,0c-0.2,0-0.5,0-0.7,0v55.9c4.3,0,8.6,0,12.9,0
	c0.7,0,0.9-0.2,0.9-0.9c0-13.3,0-26.5,0-39.8v-1.1c0.4,0,0.7,0,0.9,0c7.2,0,14.4,0,21.6,0c2.9,0,4.8,2,4.8,4.9c0,12,0,23.9,0,35.9
	V82h13.7c0-0.4,0-0.7,0-1.1c0-5.7,0-11.5,0-17.2c0-8.6,0-17.2,0-25.8C306.3,34.3,305,31.3,302.4,29"/>
<path class="st0" d="M436.4,37.9c0-3.7-1.4-6.7-4.2-9.1c-2.2-1.9-5.1-2.7-7.9-2.7c-14.2,0-28.5,0-42.7,0c0,0,0,0,0,0.1v55.9
	c4.6,0,9.2,0,13.8,0c0-13.6,0-27.1-0.1-40.7v-1.3h0.9c7.2,0,14.4,0,21.6,0c2.7,0,4.8,2.2,4.8,4.9c0,11.9,0,23.9,0,35.9V82h13.7
	c0-0.4,0-0.8,0-1.1c0-5.7,0-11.4,0-17.2C436.4,55.1,436.4,46.5,436.4,37.9"/>
</svg>
